# xmcd CD database file
#
# Track frame offsets:
#	225
#	20846
#	39836
#	63830
#	84070
#	102471
#	123302
#	139411
#	161046
#
# Disc length: 2407 seconds
#
# Revision: 0
# Processed by: cddbd v1.5PL3 Copyright (c) Steve Scherf et al.
# Submitted via: CDex 1.50
#
DISCID=71096409
DTITLE=Eton Lawrence - Open Your Heart For Love
DYEAR=1999
DGENRE=Jazz
TTITLE0=Midnight Angel
TTITLE1=These Are The Times
TTITLE2=Miracle
TTITLE3=Time Will Reveal
TTITLE4=For The First Time
TTITLE5=Open Your Heart For Love
TTITLE6=Never Thought
TTITLE7=You Are Everything
TTITLE8=Love Me In A Special Way
EXTD=YEAR: 1999
EXTT0=
EXTT1=
EXTT2=
EXTT3=
EXTT4=
EXTT5=
EXTT6=
EXTT7=
EXTT8=
PLAYORDER=
